# AST/ASF file generated using VICON BodyLanguage
# -----------------------------------------------
:version 1.10
:name VICON
:units
  mass 1.0
  length 0.45
  angle deg
:documentation
   .ast/.asf automatically generated from VICON data using
   VICON BodyBuilder and BodyLanguage model FoxedUp or BRILLIANT.MOD
:root
   order TX TY TZ RX RY RZ
   axis XYZ
   position 0 0 0  
   orientation 0 0 0 
:bonedata
  begin
     id 1 
     name lhipjoint
     direction 0.603808 -0.713975 0.35448 
     length 2.2025 
     axis 0 0 0  XYZ
  end
  begin
     id 2 
     name lfemur
     direction 0.34202 -0.939693 0  
     length 6.55877  
     axis 0 0 20  XYZ
    dof rx ry rz
    limits (-160.0 20.0)
           (-70.0 70.0)
           (-60.0 70.0)
  end
  begin
     id 3 
     name ltibia
     direction 0.34202 -0.939693 0   
     length 6.80302   
     axis 0 0 20   XYZ
    dof rx
    limits (-10.0 170.0)
  end
  begin
     id 4 
     name lfoot
     direction 0.091848 -0.25235 0.963267   
     length 2.03446   
     axis -90 7.62852e-016 20   XYZ
    dof rx rz
    limits (-45.0 90.0)
           (-70.0 20.0)
  end
  begin
     id 5 
     name ltoes
     direction 1.53608e-011 -4.21925e-011 1   
     length 1.02033   
     axis -90 7.62852e-016 20   XYZ
    dof rx
    limits (-90.0 20.0)
  end
  begin
     id 6 
     name rhipjoint
     direction -0.587285 -0.724947 0.359928   
     length 2.16916  
     axis 0 0 0  XYZ 
  end
  begin
     id 7 
     name rfemur
     direction -0.34202 -0.939693 0   
     length 6.43173   
     axis 0 0 -20   XYZ
    dof rx ry rz
    limits (-160.0 20.0)
           (-70.0 70.0)
           (-70.0 60.0)
  end
  begin
     id 8 
     name rtibia
     direction -0.34202 -0.939693 0   
     length 6.70662   
     axis 0 0 -20   XYZ
    dof rx
    limits (-10.0 170.0)
 end
 begin
     id 9 
     name rfoot
     direction -0.11854 -0.325686 0.938018   
     length 2.0773  
     axis -90 -7.62852e-016 -20   XYZ
    dof rx rz
    limits (-45.0 90.0)
           (-20.0 70.0)
  end
  begin
     id 10 
     name rtoes
     direction -1.53547e-011 -4.21838e-011 1   
     length 1.03267   
     axis -90 -7.62852e-016 -20   XYZ
    dof rx
    limits (-90.0 20.0)
  end
  begin
     id 11 
     name lowerback
     direction -0.0286554 0.999539 0.0100613   
     length 2.08751   
     axis 0 0 0   XYZ
    dof rx ry rz
    limits (-20.0 45.0)
           (-30.0 30.0)
           (-30.0 30.0)
  end
  begin
     id 12 
     name upperback
     direction 0.0227093 0.999705 -0.00860929   
     length 2.08517   
     axis 0 0 0   XYZ
    dof rx ry rz
    limits (-20.0 45.0)
           (-30.0 30.0)
           (-30.0 30.0)
  end
  begin
     id 13 
     name thorax
     direction 0.0351627 0.999285 -0.013892   
     length 2.08412   
     axis 0 0 0   XYZ
    dof rx ry rz
    limits (-20.0 45.0)
           (-30.0 30.0)
           (-30.0 30.0)
  end
  begin
     id 14 
     name lowerneck
     direction -0.0696283 0.997344 0.0213922   
     length 1.44164   
     axis 0 0 0   XYZ
    dof rx ry rz
    limits (-20.0 45.0)
           (-30.0 30.0)
           (-30.0 30.0)
  end
  begin
     id 15 
     name upperneck
     direction 0.0531 0.990412 -0.127531   
     length 1.45022   
     axis 0 0 0   XYZ
    dof rx ry rz
    limits (-20.0 45.0)
           (-30.0 30.0)
           (-30.0 30.0)
  end
  begin
     id 16
     name head
     direction 0.0188154 0.998548 -0.0504727  
     length 1.45845  
     axis 0 0 0   XYZ
    dof rx ry rz
    limits (-20.0 45.0)
           (-30.0 30.0)
           (-30.0 30.0)
  end
  begin
     id 17 
     name lclavicle
     direction 0.961559 0.260051 0.088188  
     length 2.86057  
     axis 0 0 0   XYZ
    dof ry rz
    limits (-20.0 10.0)
           (0.0 20.0)
  end
  begin
     id 18 
     name lhumerus
     direction 1 -4.48959e-011 2.88185e-027   
     length 4.36901   
     axis 180 -30 -90   XYZ
    dof rx ry rz
    limits (-60.0 90.0)
           (-90.0 90.0)
           (-90.0 90.0)
  end
  begin
     id 19
     name lradius
     direction 1 -4.48965e-011 -3.92618e-028   
     length 3.21737   
     axis 180 -30 -90   XYZ
    dof rx
    limits (-10.0 170.0)
  end
  begin
     id 20
     name lwrist
     direction 1 -4.49037e-011 2.57246e-027   
     length 1.60869   
     axis -1.61769e-015 90 90   XYZ
    dof ry
    limits (-180.0 0.0)
 end
  begin
     id 21 
     name lhand
     direction 1 -4.48807e-011 5.12958e-027   
     length 0.564313   
     axis -3.27988e-015 90 90   XYZ
    dof rx rz
    limits (-90.0 90.0)
           (-45.0 45.0)
  end
  begin
     id 22 
     name lfingers
     direction 1 -4.48879e-011 1.02687e-026   
     length 0.454963   
     axis -6.5598e-015 90 90   XYZ
    dof rx
    limits (0.0 90.0)
  end
  begin
     id 23
     name lthumb
     direction 0.707107 -6.3475e-011 0.707107   
     length 0.653239   
     axis -90 45 2.19363e-014   XYZ
    dof rx rz
    limits (-45.0 45.0)
           (-45.0 45.0)
  end
  begin
     id 24 
     name rclavicle
     direction -0.954677 0.253915 0.155304   
     length 3.11497  
     axis 0 0 0   XYZ 
    dof ry rz
    limits (-10.0 20.0)
           (-20.0 0.0)
  end
  begin
     id 25 
     name rhumerus
     direction -1 -4.48958e-011 -8.20169e-028  
     length 4.34118   
     axis 180 30 90   XYZ
    dof rx ry rz
    limits (-90.0 60.0)
           (-90.0 90.0)
           (-90.0 90.0)
  end
  begin
     id 26 
     name rradius
     direction -1 -4.48978e-011 1.5676e-027   
     length 3.09531   
     axis 180 30 90   XYZ
    dof rx
    limits (-10.0 170.0)
  end
  begin
     id 27 
     name rwrist
     direction -1 -4.49001e-011 2.57123e-027   
     length 1.54765   
     axis -1.61769e-015 -90 -90   XYZ
    dof ry
    limits (-180.0 0.0)
  end
  begin
     id 28
     name rhand
     direction -1 -4.48847e-011 5.13225e-027   
     length 0.597446   
     axis -3.27988e-015 -90 -90   XYZ
    dof rx rz
    limits (-90.0 90.0)
           (-45.0 45.0)
  end
  begin
     id 29
     name rfingers
     direction -1 -4.49094e-011 1.02974e-026   
     length 0.481677   
     axis -6.5598e-015 -90 -90   XYZ
    dof rx
    limits (0.0 90.0)
  end
  begin
     id 30
     name rthumb
     direction -0.707107 -6.34859e-011 0.707107   
     length 0.691594   
     axis -90 -45 -2.19363e-014   XYZ
    dof rx rz
    limits (-45.0 45.0)
           (-45.0 45.0)
  end
:hierarchy
  begin
    root lhipjoint rhipjoint lowerback
    lhipjoint lfemur
    lfemur ltibia
    ltibia lfoot
    lfoot ltoes
    rhipjoint rfemur
    rfemur rtibia
    rtibia rfoot
    rfoot rtoes
    lowerback upperback
    upperback thorax
    thorax lowerneck lclavicle rclavicle
    lowerneck upperneck
    upperneck head
    lclavicle lhumerus
    lhumerus lradius
    lradius lwrist
    lwrist lhand lthumb
    lhand lfingers
    rclavicle rhumerus
    rhumerus rradius
    rradius rwrist
    rwrist rhand rthumb
    rhand rfingers
  end

#!OML:ASF I:\Acrobat_Osman\acrobat\cartwheel_test 2\Patient 1\Session 1\acrobat.ASF
:FULLY-SPECIFIED
:DEGREES
254
root 6.04699 14.6851 -12.2939 52.8705 0.716289 -3.64326
lowerback 33.8079 -1.5889 -0.710236
upperback 17.3768 -2.144 -2.06012
thorax 1.73711 -0.973447 -1.17491
lowerneck -15.5402 -0.191241 -14.1282
upperneck 0.571919 1.82609 11.7401
head 2.4431 1.3751 6.06042
rclavicle -1.59028e-015 1.07344e-014
rhumerus 28.2855 -17.7487 -21.525
rradius 28.8816
rwrist 0.498039
rhand -28.6058 36.5391
rfingers 7.12502
rthumb -1.971 6.56843
lclavicle -1.59028e-015 1.07344e-014
lhumerus -32.7254 5.37521 10.7628
lradius 33.635
lwrist 31.6955
lhand -20.2384 55.7846
lfingers 7.12502
lthumb 6.10969 85.6765
rfemur -79.1451 0.414063 -4.86987
rtibia 23.9133
rfoot -16.4922 -18.8313
rtoes -25.6799
lfemur -73.2553 -6.89562 37.8642
ltibia 29.91
lfoot -42.2795 48.0547
ltoes 14.3446
255
root 6.07331 14.6689 -12.3051 53.1509 0.234125 -2.16658
lowerback 33.4789 -0.240224 -0.0873533
upperback 17.606 -0.357885 -0.962643
thorax 2.14763 -0.132454 -0.860611
lowerneck -16.2751 0.281148 -13.5036
upperneck 1.0003 2.52629 9.90062
head 2.6072 1.66586 5.42095
rclavicle 3.97569e-015 5.76476e-015
rhumerus 32.6083 -15.1744 -20.4014
rradius 30.4426
rwrist -1.01889
rhand -28.7723 35.2145
rfingers 7.12502
rthumb -2.13179 5.24543
lclavicle 3.97569e-015 5.76476e-015
lhumerus -35.6266 6.93698 12.1827
lradius 32.715
lwrist 31.0223
lhand -19.8791 55.0147
lfingers 7.12502
lthumb 6.45649 84.8963
rfemur -79.1236 -0.672396 -6.77013
rtibia 24.329
rfoot -17.4448 -19.9102
rtoes -25.577
lfemur -74.2526 -7.18638 36.2451
ltibia 29.6989
lfoot -41.9544 47.5193
ltoes 15.4329
256
root 6.09339 14.649 -12.3097 53.3293 -0.35891 -0.687644
lowerback 33.3573 1.39206 0.368146
upperback 17.8923 1.71003 0.28825
thorax 2.5208 0.824051 -0.356113
lowerneck -16.9394 0.676879 -12.5694
upperneck 1.53352 3.0624 7.84153
head 2.83857 1.84906 4.66222
rclavicle -4.77083e-015 5.56597e-015
rhumerus 36.3195 -12.9837 -19.0561
rradius 32.1291
rwrist -1.70749
rhand -28.016 33.6755
rfingers 7.12502
rthumb -1.40137 3.70032
lclavicle -4.77083e-015 5.56597e-015
lhumerus -37.7888 6.48023 14.3607
lradius 31.8862
lwrist 31.9854
lhand -19.4221 54.3689
lfingers 7.12502
lthumb 6.89771 84.2365
rfemur -79.0557 -1.68869 -8.74085
rtibia 24.8513
rfoot -18.9529 -20.3541
rtoes -23.5636
lfemur -75.112 -7.53934 34.5418
ltibia 29.5365
lfoot -41.49 46.8127
ltoes 16.7992
257
root 6.09335 14.6287 -12.3145 53.7196 -1.44946 0.373566
lowerback 33.0335 3.38142 0.307603
upperback 18.2059 4.04616 1.49308
thorax 2.92199 1.87014 0.321269
lowerneck -17.7603 1.01356 -11.5486
upperneck 2.28905 3.54062 5.54188
head 3.19399 1.97375 3.82697
rclavicle 2.22639e-014 7.95139e-015
rhumerus 39.8638 -10.6935 -17.7786
rradius 33.6916
rwrist -2.36777
rhand -28.1316 34.4113
rfingers 7.12502
rthumb -1.51306 4.43688
lclavicle 2.22639e-014 7.95139e-015
lhumerus -39.7446 6.34178 16.3433
lradius 30.5937
lwrist 32.2353
lhand -19.073 53.5399
lfingers 7.12502
lthumb 7.23472 83.3962
rfemur -79.7251 -2.45805 -10.2225
rtibia 25.5788
rfoot -19.6314 -20.286
rtoes -22.5772
lfemur -75.5343 -7.27984 32.6844
ltibia 29.4541
lfoot -41.0237 46.0224
ltoes 18.2821
258
root 6.08285 14.5774 -12.3404 55.3024 -2.31537 1.57159
lowerback 30.999 5.22867 0.193135
upperback 18.4264 6.22945 2.65247
thorax 3.89796 2.84661 1.1843
lowerneck -18.6134 1.21909 -10.7378
upperneck 2.97176 3.9043 3.38394
head 3.55698 2.03162 3.0699
rclavicle -4.45278e-014 3.33958e-014
rhumerus 43.125 -8.05522 -16.2317
rradius 35.366
rwrist -3.18486
rhand -28.433 35.0535
rfingers 7.12502
rthumb -1.80408 5.08137
lclavicle -4.45278e-014 3.33958e-014
lhumerus -41.6806 7.2276 17.6175
lradius 28.9438
lwrist 30.9614
lhand -19.2127 52.6471
lfingers 7.12502
lthumb 7.09982 82.508
rfemur -81.6205 -3.97413 -11.948
rtibia 26.5491
rfoot -19.8997 -20.8043
rtoes -23.3312
lfemur -77.122 -6.03511 31.1593
ltibia 29.4264
lfoot -39.9092 45.7565
ltoes 18.9452
259
root 6.06188 14.473 -12.3982 58.4645 -2.59776 3.05535
lowerback 27.5251 6.98643 -0.105431
upperback 18.2648 8.33466 4.00606
thorax 4.91475 3.76368 2.56024
lowerneck -19.1119 1.30829 -10.5476
upperneck 3.39934 4.16736 2.0206
head 3.78009 2.07332 2.6458
rclavicle 3.18055e-014 -2.70347e-014
rhumerus 46.0538 -5.44508 -14.5143
rradius 36.9859
rwrist -3.8106
rhand -28.217 35.48
rfingers 7.12502
rthumb -1.59547 5.50622
lclavicle 3.18055e-014 -2.70347e-014
lhumerus -43.5168 8.27429 18.5574
lradius 27.1967
lwrist 29.0457
lhand -19.5888 52.2107
lfingers 7.12502
lthumb 6.73678 82.0835
rfemur -84.8348 -6.75594 -13.7619
rtibia 27.8048
rfoot -20.4119 -21.8786
rtoes -23.7945
lfemur -80.4779 -3.66613 30.2578
ltibia 29.4106
lfoot -38.1582 45.9338
ltoes 18.812
260
root 6.0472 14.3701 -12.4482 61.1199 -2.66543 4.97789
lowerback 24.8319 8.47858 -0.534393
upperback 17.9032 10.1378 5.37354
thorax 5.29203 4.53186 4.09322
lowerneck -18.5805 1.49928 -10.0826
upperneck 3.41431 4.39286 0.475636
head 3.73845 2.09997 2.09907
rclavicle 2.54444e-014 -1.74931e-014
rhumerus 48.3954 -2.31195 -12.5789
rradius 38.9161
rwrist -5.19047
rhand -29.1187 37.714
rfingers 7.12502
rthumb -2.46639 7.74851
lclavicle 2.54444e-014 -1.74931e-014
lhumerus -45.7396 8.94608 18.9618
lradius 25.5222
lwrist 27.1198
lhand -20.5594 53.5632
lfingers 7.12502
lthumb 5.79973 83.4639
rfemur -87.1759 -9.77277 -15.7176
rtibia 29.2768
rfoot -21.2704 -22.8395
rtoes -23.7626
lfemur -83.9176 -2.13923 29.2735
ltibia 29.34
lfoot -36.853 45.8902
ltoes 19.3937
261
root 6.0412 14.2695 -12.4901 63.3716 -2.65957 7.19917
lowerback 22.8507 9.42402 0.23698
upperback 17.4558 11.4626 5.52259
thorax 5.70965 5.24985 3.77584
lowerneck -18.0253 1.83079 -7.85156
upperneck 3.19675 4.39023 -0.969919
head 3.67013 2.05694 1.29499
rclavicle 6.67916e-014 3.49861e-014
rhumerus 50.5841 0.232477 -15.5668
rradius 39.6562
rwrist -2.50499
rhand -28.8466 38.3824
rfingers 7.12502
rthumb -2.20354 8.41405
lclavicle 6.67916e-014 3.49861e-014
lhumerus -47.1275 9.22673 17.6752
lradius 24.0416
lwrist 25.7776
lhand -21.7351 53.3392
lfingers 7.12502
lthumb 4.66456 83.2679
rfemur -88.7338 -12.8904 -17.8954
rtibia 30.8311
rfoot -22.6945 -23.4964
rtoes -23.09
lfemur -87.3189 -1.26513 28.2008
ltibia 29.2381
lfoot -35.7431 45.8286
ltoes 20.168
262
root 6.04492 14.1862 -12.5144 64.9829 -2.69267 9.20873
lowerback 22.0231 10.4809 1.20195
upperback 16.9924 12.9237 5.61445
thorax 5.66589 6.04932 3.1681
lowerneck -17.7071 2.02528 -5.58744
upperneck 3.15591 4.21489 -2.10169
head 3.68885 1.93856 0.575572
rclavicle -9.54166e-014 -1.74931e-014
rhumerus 51.7205 3.01982 -16.6578
rradius 40.8215
rwrist -2.15062
rhand -28.9187 41.2124
rfingers 7.12502
rthumb -2.27324 11.2448
lclavicle -9.54166e-014 -1.74931e-014
lhumerus -48.2316 9.61095 16.0209
lradius 22.6088
lwrist 24.4952
lhand -22.4399 55.5022
lfingers 7.12502
lthumb 3.98397 85.4447
rfemur -89.754 -15.692 -19.1499
rtibia 32.2632
rfoot -23.7817 -23.2905
rtoes -22.5198
lfemur -90.0653 -0.976285 27.1337
ltibia 29.1577
lfoot -34.7314 45.8404
ltoes 20.5486
263
root 6.05258 14.1095 -12.5243 66.3326 -2.81341 11.0427
lowerback 21.97 11.7561 2.34761
upperback 16.2509 14.6929 5.47381
thorax 5.09476 7.01879 2.04762
lowerneck -16.6553 2.04058 -2.48679
upperneck 2.35628 3.56658 -3.11836
head 3.77058 1.6239 -0.298032
rclavicle -1.36764e-013 8.42847e-014
rhumerus 50.524 5.64462 -13.5644
rradius 44.1826
rwrist -5.54288
rhand -29.23 41.0148
rfingers 7.12502
rthumb -2.57383 11.0505
lclavicle -1.36764e-013 8.42847e-014
lhumerus -48.6322 8.72592 14.6902
lradius 21.726
lwrist 24.5364
lhand -23.3589 55.8489
lfingers 7.12502
lthumb 3.09646 85.8062
rfemur -90.6605 -18.3283 -19.8
rtibia 33.5322
rfoot -24.1787 -22.7423
rtoes -22.6872
lfemur -92.4442 -0.922512 26.0487
ltibia 29.1125
lfoot -34.2033 45.6479
ltoes 21.0739
264
root 6.0596 14.0394 -12.5218 67.5314 -2.97762 12.6
lowerback 22.4997 13.3482 3.48544
upperback 15.32 16.8841 5.12698
thorax 4.20524 8.18013 0.542061
lowerneck -16.1851 1.86121 1.72637
upperneck 2.10006 2.51583 -4.12805
head 3.68098 1.10162 -1.49406
rclavicle -7.95139e-014 9.54166e-015
rhumerus 50.2304 7.60405 -14.7867
rradius 44.7164
rwrist -4.77671
rhand -28.1574 39.6827
rfingers 7.12502
rthumb -1.53794 9.70848
lclavicle -7.95139e-014 9.54166e-015
lhumerus -48.2227 7.01199 13.627
lradius 21.3646
lwrist 26.287
lhand -24.4998 57.3305
lfingers 7.12502
lthumb 1.99466 87.3009
rfemur -91.5707 -20.6939 -20.0121
rtibia 34.5973
rfoot -24.0922 -22.2312
rtoes -23.3236
lfemur -94.4931 -0.896641 25.0347
ltibia 29.1068
lfoot -34.0086 45.2757
ltoes 21.8599
